<svg xmlns="http://www.w3.org/2000/svg" width="256" height="256" viewBox="0 0 100 100"><rect width="100" height="100" rx="20" fill="#5a1f9f"></rect><path d="M8.88 89.51L8.88 10.49L29.76 10.49Q39.24 10.49 43.28 16.60Q47.33 22.72 47.33 34.50L47.33 34.50Q47.33 46.27 43.74 52.25Q40.16 58.23 30.86 58.23L30.86 58.23L24.42 58.23L24.42 89.51L8.88 89.51ZM24.42 43.97L25.34 43.97Q28.20 43.97 29.53 42.92Q30.86 41.86 31.28 39.88Q31.69 37.90 31.69 34.22L31.69 34.22Q31.69 29.25 30.59 27.05Q29.48 24.84 26.17 24.84L26.17 24.84L24.42 24.84L24.42 43.97ZM52.30 89.51L52.30 10.49L73.74 10.49Q82.38 10.49 86.29 14.72Q90.20 18.95 90.20 28.52L90.20 28.52L90.20 32.01Q90.20 43.33 82.11 45.54L82.11 45.54Q87.08 46.83 89.10 51.52Q91.12 56.21 91.12 63.94L91.12 63.94Q91.12 76.54 87.35 83.03Q83.58 89.51 73.74 89.51L73.74 89.51L52.30 89.51ZM67.76 40.20L70.98 40.20Q73 40.20 73.74 38.68Q74.47 37.17 74.47 34.41L74.47 34.41L74.47 26.49Q74.47 22.63 71.07 22.63L71.07 22.63L67.76 22.63L67.76 40.20ZM69.32 75.62Q75.48 75.62 75.48 69.73L75.48 69.73L75.48 59.89Q75.48 56.30 74.43 54.46Q73.37 52.62 70.70 52.62L70.70 52.62L67.76 52.62L67.76 75.53L69.32 75.62Z" fill="#fff"></path></svg>